# xmcd
#
# Track frame offsets:
#	150
#	7079
#	16818
#	27019
#	39407
#	47479
#	58208
#	75740
#	89631
#	99347
#	110293
#	126168
#	144468
#	162357
#	179915
#	190926
#	205108
#	215860
#	226932
#	238023
#	260946
#	272346
#
# Disc length: 3795 seconds
#
# Revision: 0
# Processed by: cddbd v1.5.2PL0 Copyright (c) Steve Scherf et al.
# Submitted via: audiograbber 1.83.01
#
DISCID=380ed116
DTITLE=Dean Bowman - Death Don't Have No Mercy
DYEAR=2010
DGENRE=Gospel
TTITLE0=Death Don't Have No Mercy (Take 1)
TTITLE1=Climbin' Up the Mountain
TTITLE2=Down On Me
TTITLE3=No Hiding Place
TTITLE4=Scandalize My Name
TTITLE5=Rockin' Jerusalem
TTITLE6=Balm In Gilead
TTITLE7=Walk In The Light
TTITLE8=Go Down Moses
TTITLE9=Motherless Child
TTITLE10=You Hear the Lambs a Cryin'
TTITLE11=Heard the Angels Singing
TTITLE12=Joshua Fit the Battle
TTITLE13=If You See My Savior
TTITLE14=Ezekiel Saw the Wheel
TTITLE15=Gonna Journey Away
TTITLE16=When I Stand Before the King
TTITLE17=I'm Gonna Tell God All My Troubles
TTITLE18=Wade In The Water
TTITLE19=Soon I Will Be Done
TTITLE20=Right Now
TTITLE21=Death Don't Have No Mercy (Take 2)
EXTD=
EXTT0=
EXTT1=
EXTT2=
EXTT3=
EXTT4=
EXTT5=
EXTT6=
EXTT7=
EXTT8=
EXTT9=
EXTT10=
EXTT11=
EXTT12=
EXTT13=
EXTT14=
EXTT15=
EXTT16=
EXTT17=
EXTT18=
EXTT19=
EXTT20=
EXTT21=
PLAYORDER=
